<svg xmlns="http://www.w3.org/2000/svg" id="Livello_1" width="26.67" height="26.67" data-name="Livello 1" viewBox="0 0 20 20">
  <defs>
    <style>
      .cls-1{fill:none;stroke:#000;stroke-linecap:round;stroke-linejoin:round;stroke-width:2.5px}
    </style>
  </defs>
  <path d="M10 17.66c-.48 0-.97-.2-1.3-.6L.78 7.7A1.73 1.73 0 0 1 .43 6.4c.06-.45.3-.85.65-1.12A14.48 14.48 0 0 1 10 2.09c3.14 0 6.14 1.07 8.92 3.2.4.33.62.75.66 1.21.04.46-.1.9-.4 1.24l-8.08 9.51c-.32.28-.7.4-1.1.4Z" style="opacity:.3"/>
  <path d="M12.71 6.05 7.3 11.47M12.71 11.47 7.3 6.05" class="cls-1"/>
</svg>
